<?xml version="1.0" standalone="no"?>
<!DOCTYPE svg PUBLIC "-//W3C//DTD SVG 20010904//EN"
 "http://www.w3.org/TR/2001/REC-SVG-20010904/DTD/svg10.dtd">
<svg version="1.0" xmlns="http://www.w3.org/2000/svg"
 width="199.000000pt" height="148.000000pt" viewBox="0 0 199.000000 148.000000"
 preserveAspectRatio="xMidYMid meet">

<g transform="translate(0.000000,148.000000) scale(0.100000,-0.100000)"
fill="#000000" stroke="none">
<path d="M0 1439 l0 -40 48 37 c26 21 49 40 51 41 2 2 -19 3 -47 3 l-52 0 0
-41z"/>
<path d="M131 1463 c-1 -12 5 -28 13 -36 10 -9 13 -26 9 -48 -5 -37 -13 -52
-13 -26 0 30 -45 -1 -60 -41 -11 -32 -14 -34 -21 -17 -4 11 -8 15 -8 9 -1 -6
-12 -10 -26 -9 -28 4 -29 2 -15 -26 7 -13 7 -19 0 -19 -5 0 -10 -22 -10 -50 0
-27 3 -50 6 -50 4 0 27 11 53 25 58 31 154 55 218 55 58 0 112 -33 153 -93 14
-20 33 -37 43 -37 19 0 22 11 6 27 -8 8 -8 13 0 17 6 4 11 2 11 -5 0 -7 8 -6
25 5 32 21 32 9 0 -26 -13 -16 -33 -28 -45 -28 -20 0 -20 -1 -4 -25 9 -14 21
-25 28 -25 23 0 37 -18 42 -54 4 -32 2 -37 -13 -34 -11 2 -20 15 -23 33 -6 28
-7 29 -14 8 -4 -13 -4 -28 0 -34 4 -8 0 -8 -15 0 -11 7 -21 21 -21 31 0 11 -5
20 -11 20 -7 0 -8 -11 -4 -32 l7 -32 -27 18 c-28 18 -47 14 -27 -6 19 -19 14
-28 -15 -28 -26 0 -26 -1 -7 -14 18 -14 18 -16 2 -28 -9 -7 -18 -24 -21 -38
-3 -23 -4 -23 -11 -5 -4 11 -12 28 -17 38 -7 13 -7 23 1 32 8 10 6 15 -10 20
-24 8 -50 -15 -50 -44 0 -23 -27 -41 -64 -41 -14 0 -27 -4 -31 -9 -3 -5 -41
-9 -85 -8 l-80 2 0 -236 0 -236 43 -45 c23 -25 53 -57 67 -73 27 -30 76 -55
110 -55 11 0 20 -4 20 -10 0 -20 -67 -10 -101 15 -37 27 -57 37 -106 53 l-33
10 0 -39 c0 -30 3 -37 15 -33 19 8 32 -23 16 -39 -9 -9 -14 -8 -21 3 -7 10
-10 -12 -10 -67 l0 -83 710 0 c467 0 710 3 710 10 0 6 7 10 15 10 8 0 15 -4
15 -9 0 -5 45 -9 100 -9 l99 1 -19 27 c-17 24 -27 60 -17 60 13 0 67 -34 96
-60 26 -24 36 -28 47 -19 8 6 14 13 14 14 0 5 -113 86 -139 100 -16 8 -31 20
-33 27 -2 6 -10 8 -19 4 -40 -20 -58 -33 -52 -39 3 -4 1 -7 -5 -7 -12 0 -16
12 -13 40 2 13 1 13 -9 0 -9 -12 -13 -12 -17 -2 -3 7 -15 17 -28 22 -12 5 -32
22 -44 39 -17 23 -18 29 -7 25 9 -3 16 -12 16 -20 0 -7 6 -11 13 -8 20 7 17
36 -4 41 -10 3 -15 11 -12 19 4 12 7 12 18 -2 6 -9 17 -14 23 -10 17 10 15 26
-3 26 -8 0 -15 4 -15 9 0 5 -9 11 -21 14 -17 5 -20 2 -16 -14 4 -16 2 -19 -14
-14 -12 4 -31 -2 -50 -15 -16 -12 -33 -20 -35 -17 -3 3 4 10 15 17 26 13 26
24 4 50 -18 20 -43 27 -43 11 0 -5 -14 -14 -30 -21 -24 -10 -36 -10 -53 -1
-12 6 -14 9 -5 7 10 -3 20 -1 23 5 4 5 3 9 -2 8 -4 -1 -20 -1 -35 0 -66 3 -11
91 56 91 38 0 77 -25 70 -45 -13 -32 9 -33 40 -2 26 26 40 32 72 32 47 -2 115
-36 149 -77 24 -29 35 -65 15 -53 -15 9 -12 -11 3 -24 8 -6 29 -14 48 -17 44
-9 77 -26 114 -61 17 -15 51 -45 78 -66 52 -42 54 -48 31 -72 -23 -22 -14 -27
47 -22 42 3 49 5 32 11 -20 7 -23 15 -23 60 0 32 7 65 20 89 11 20 20 38 20
40 0 2 -13 2 -28 -1 -18 -2 -42 4 -63 17 -40 25 -50 26 -43 6 4 -8 1 -15 -5
-15 -6 0 -10 3 -9 7 1 5 -5 20 -12 35 -10 22 -16 25 -27 17 -10 -9 -13 -8 -13
4 0 19 42 35 48 18 2 -6 8 -11 14 -11 6 0 3 11 -6 24 -15 23 -14 25 5 31 13 4
25 2 29 -5 5 -8 10 -9 14 -2 4 6 -3 16 -14 22 -11 6 -20 18 -20 27 0 9 3 14 6
10 4 -3 13 0 21 8 8 8 22 15 31 15 12 -1 10 -5 -8 -15 -14 -8 -20 -15 -15 -15
6 0 3 -5 -5 -10 -10 -7 -11 -10 -2 -10 7 0 15 7 18 15 4 8 10 15 16 15 5 0 6
-5 2 -12 -5 -7 -2 -9 7 -4 8 4 5 0 -6 -9 -20 -17 -19 -17 7 -13 30 5 42 -10
26 -33 -8 -11 -9 -10 -4 4 3 11 0 17 -9 17 -10 0 -12 -6 -8 -17 6 -16 5 -16
-10 -4 -15 12 -17 11 -17 -8 0 -12 6 -24 14 -27 8 -3 12 -13 8 -26 -3 -15 -1
-19 9 -16 8 3 14 16 13 31 0 14 4 23 8 21 10 -6 68 18 68 28 0 3 -6 9 -12 11
-10 4 -10 6 0 6 17 1 15 31 -3 31 -8 0 -15 -6 -16 -12 0 -7 -5 -2 -10 12 -8
19 -12 21 -19 11 -7 -12 -11 -11 -25 2 -9 10 -13 17 -8 17 4 0 0 7 -10 14 -17
13 -16 15 15 22 18 4 45 6 61 5 24 -1 27 2 27 29 0 16 -2 30 -5 30 -2 0 -26
-14 -52 -30 -52 -33 -101 -39 -137 -15 -38 25 -116 131 -116 158 0 44 20 82
58 107 20 14 42 25 49 25 6 0 15 4 20 9 4 5 3 6 -4 2 -7 -4 -13 -5 -13 -2 0
12 82 56 92 50 6 -4 8 -3 5 3 -4 6 0 13 8 17 8 3 17 0 21 -6 5 -7 2 -8 -6 -3
-8 5 -11 4 -7 -3 4 -5 16 -8 27 -5 13 3 20 0 20 -8 0 -8 9 -20 19 -26 19 -12
20 -9 20 86 0 76 -3 100 -14 104 -7 3 -19 -1 -25 -9 -16 -19 -27 -18 -33 4 -2
9 -8 26 -13 36 -4 12 -4 17 2 13 6 -3 8 8 6 28 -5 41 10 70 45 87 15 7 29 19
31 27 3 9 0 11 -9 6 -11 -6 -12 -5 -1 6 18 19 15 49 -5 49 -17 1 -17 1 0 11
15 9 17 26 17 134 l0 124 -287 1 c-159 0 -294 -4 -302 -9 -8 -5 -11 -16 -8
-25 11 -27 -38 -51 -97 -47 -28 1 -77 3 -108 4 -52 2 -59 5 -89 40 l-32 37
-228 0 -229 0 0 -57 c0 -75 -8 -103 -26 -96 -8 3 -14 1 -14 -5 0 -5 -12 -13
-27 -17 -28 -7 -28 -7 -5 -16 33 -13 27 -17 -20 -15 -24 1 -50 -1 -59 -5 -8
-4 -22 -3 -30 2 -7 5 -9 9 -4 9 6 0 3 6 -5 13 -8 7 -24 29 -35 49 -13 25 -22
33 -27 25 -9 -15 1 -58 19 -76 8 -8 12 -22 10 -32 -3 -11 -1 -22 4 -25 5 -3 7
-10 3 -15 -3 -5 -10 -7 -15 -3 -5 3 -7 9 -4 14 3 5 -1 12 -8 17 -13 8 -57 94
-57 113 0 5 -5 10 -11 10 -6 0 -9 7 -6 15 7 17 -8 29 -24 20 -7 -5 -4 -14 7
-26 9 -10 13 -19 9 -19 -4 0 -1 -8 8 -18 9 -10 18 -29 19 -43 2 -13 7 -27 12
-30 5 -4 7 -12 5 -18 -3 -8 -12 -6 -28 5 -18 13 -20 18 -10 26 11 6 9 8 -6 6
-11 -2 -23 -7 -27 -13 -4 -5 -8 0 -8 12 0 12 -5 23 -10 25 -6 2 -12 25 -13 51
-1 35 -5 46 -16 42 -9 -4 -11 0 -7 11 3 8 6 20 6 25 0 5 10 14 23 19 22 9 22
9 -3 10 -14 1 -35 3 -48 6 -15 3 -25 -2 -29 -13 -6 -15 -7 -14 -14 3 -7 18 -8
17 -8 -3z m1685 -17 c0 -7 23 -32 51 -55 62 -48 86 -90 86 -147 0 -55 -29
-103 -84 -137 -85 -52 -200 -44 -259 18 -29 31 -36 31 -44 0 -4 -14 -10 -23
-15 -20 -5 2 -12 -2 -15 -11 -4 -10 -13 -13 -27 -9 -15 5 -19 4 -15 -4 12 -18
-2 -13 -22 10 -18 18 -20 18 -26 3 -8 -20 2 -54 15 -54 6 0 19 5 30 10 26 14
24 2 -3 -20 l-23 -19 23 6 c16 4 22 1 22 -11 0 -10 5 -14 11 -10 6 3 9 14 6
24 -4 17 -2 17 22 7 14 -6 29 -16 33 -22 5 -6 8 -3 8 8 0 10 -8 17 -20 17 -11
0 -20 5 -20 11 0 6 7 9 15 5 9 -3 15 0 15 10 0 11 -6 13 -21 9 -14 -5 -19 -3
-15 4 9 15 105 12 137 -5 43 -21 88 -64 106 -98 22 -43 33 -94 21 -98 -6 -2
-11 -18 -12 -35 0 -17 -4 -29 -7 -27 -3 2 -21 -12 -39 -31 -47 -49 -148 -72
-190 -45 -12 8 -11 10 8 10 12 0 22 5 22 10 0 6 7 10 15 10 9 0 12 6 8 16 -4
10 1 22 12 30 17 13 16 15 -18 29 -20 8 -41 15 -47 15 -16 0 -12 16 8 31 16
13 16 13 2 -6 -14 -19 -14 -19 3 -6 22 17 22 20 -5 30 -14 5 -31 5 -42 -1 -13
-7 -21 -6 -27 3 -8 11 -12 10 -25 -6 -8 -11 -22 -19 -30 -17 -8 2 -14 -2 -14
-8 0 -5 9 -10 20 -10 17 0 19 -3 10 -19 -14 -26 -13 -38 2 -23 7 7 19 12 28
12 13 0 13 -1 0 -10 -8 -5 -10 -10 -5 -11 6 0 1 -4 -10 -8 -14 -6 -25 -2 -37
12 -10 11 -18 23 -18 26 0 3 -3 29 -6 57 -4 31 -1 60 6 73 10 19 8 26 -14 46
l-26 24 -15 -37 c-29 -70 -136 -112 -210 -81 -16 7 -34 11 -38 10 -5 -1 -6 3
-2 9 3 5 2 10 -3 10 -5 0 -13 20 -16 45 -4 24 -11 47 -17 50 -5 4 -9 2 -9 -4
0 -21 -39 -33 -60 -18 -11 8 -17 17 -13 20 3 4 2 7 -4 7 -19 0 -2 38 25 56 25
16 26 16 49 -10 l23 -27 0 32 c0 17 10 48 21 69 26 46 20 77 -10 58 -15 -9
-23 -9 -35 1 -9 7 -13 18 -9 25 3 6 -3 3 -14 -7 -18 -16 -27 -17 -60 -8 -35
10 -112 58 -113 71 0 3 9 11 21 18 18 11 20 11 17 0 -4 -12 6 -21 61 -50 20
-10 25 -10 36 6 9 12 20 16 34 11 24 -7 26 1 10 56 -9 30 -9 42 0 53 7 8 9 21
5 28 -4 7 2 5 14 -6 11 -10 33 -55 47 -100 35 -109 34 -109 74 -95 18 6 52 9
76 6 26 -4 47 -2 50 4 4 5 16 7 27 3 13 -4 18 -2 14 4 -4 7 3 8 23 2 23 -6 31
-5 35 7 10 26 7 30 -19 25 -18 -3 -25 0 -25 11 0 45 34 63 60 32 17 -20 32
-19 64 6 19 15 27 17 26 8 -4 -28 0 -39 15 -39 8 0 15 7 15 15 0 22 56 81 93
98 17 8 58 17 91 20 32 3 63 10 69 16 14 14 15 14 13 -3z m-344 -63 c22 -20
22 -27 2 -48 -15 -15 -18 -15 -35 4 -22 24 -23 33 -7 49 15 15 18 15 40 -5z
m-1305 -60 c-3 -10 -5 -4 -5 12 0 17 2 24 5 18 2 -7 2 -21 0 -30z m1138 1 c15
-23 15 -27 0 -50 -17 -26 -35 -30 -67 -13 -15 8 -27 8 -44 0 -19 -8 -24 -8
-24 3 0 8 -3 21 -6 30 -3 9 -1 16 5 16 6 0 11 -7 11 -15 0 -8 3 -15 8 -15 15
1 44 29 47 47 2 10 4 19 4 21 1 1 12 2 25 2 14 0 30 -10 41 -26z m-1082 -48
c10 -15 16 -31 13 -34 -4 -3 -6 0 -6 7 0 7 -4 9 -10 6 -9 -6 -14 8 -7 20 1 2
-7 11 -18 20 -13 10 -15 14 -5 13 8 -2 23 -16 33 -32z m-183 -7 c0 -6 -4 -7
-10 -4 -5 3 -10 11 -10 16 0 6 5 7 10 4 6 -3 10 -11 10 -16z m595 -31 c23 12
71 -3 80 -26 5 -14 4 -15 -6 -4 -7 6 -33 12 -57 12 -38 0 -43 -2 -32 -15 7 -8
24 -15 39 -15 15 0 32 -5 38 -11 8 -8 17 -7 34 5 53 37 127 14 204 -64 53 -54
54 -75 2 -46 -31 18 -30 17 11 -26 39 -41 72 -112 58 -126 -3 -3 -6 2 -6 11 0
11 -8 17 -25 17 -14 0 -25 6 -25 14 0 9 -12 13 -40 11 -22 -1 -44 -5 -48 -9
-12 -13 32 -37 55 -31 46 11 83 -28 62 -66 -6 -13 -14 -17 -18 -11 -3 5 -15
12 -26 14 -14 2 -20 -2 -19 -14 2 -26 -23 -22 -29 4 -5 18 -8 19 -21 9 -9 -8
-13 -18 -9 -25 10 -15 -48 22 -68 44 -8 9 -25 21 -38 25 -34 10 -19 16 16 6
25 -7 35 -6 48 9 17 19 17 67 0 62 -5 -1 -11 -8 -11 -15 -1 -6 -2 -19 -3 -27
-1 -10 -8 -6 -22 13 -11 15 -25 27 -31 27 -6 0 -17 8 -24 18 -13 16 -13 16
-14 -1 0 -15 -8 -17 -47 -15 -53 3 -72 19 -73 59 0 33 17 49 54 49 27 0 66 24
66 41 0 4 -9 5 -20 2 -11 -3 -20 -9 -20 -13 0 -4 -13 -7 -29 -6 -16 0 -27 5
-25 11 3 6 -5 11 -16 12 -20 2 -26 -10 -33 -72 -3 -26 -4 -27 -12 -11 -8 18
-5 28 20 90 5 12 5 17 -1 13 -6 -3 -16 -2 -24 3 -11 7 -12 16 -1 49 l12 42 28
-17 c21 -12 33 -14 46 -6z m429 -39 c11 -17 12 -25 3 -40 -16 -26 -44 -24 -71
6 -13 14 -28 25 -34 25 -6 0 -14 5 -18 12 -5 8 2 9 24 5 17 -4 34 -2 37 3 11
17 43 11 59 -11z m806 -223 c0 -2 -7 -7 -16 -10 -8 -3 -12 -2 -9 4 6 10 25 14
25 6z m-780 -36 c0 -12 -8 -12 -35 0 -18 8 -17 9 8 9 15 1 27 -3 27 -9z m-610
-8 c0 -5 -11 -15 -25 -22 -14 -7 -25 -17 -25 -22 0 -5 -5 -6 -11 -2 -7 4 -1
15 17 30 31 25 44 29 44 16z m108 -49 c-2 -35 -7 -48 -18 -48 -10 0 -16 -12
-18 -33 -2 -23 -8 -32 -17 -28 -8 3 -16 -5 -19 -20 -4 -14 -11 -22 -16 -19 -6
3 -10 -5 -10 -18 0 -15 -10 -31 -26 -42 -25 -16 -25 -16 -14 6 l12 22 -29 -21
c-17 -12 -33 -18 -37 -14 -4 3 -11 1 -15 -7 -6 -9 -10 -7 -14 9 -3 13 1 28 13
40 10 10 21 27 24 38 4 11 16 28 28 38 20 19 21 19 14 -3 -5 -16 -2 -25 11
-32 17 -8 18 -6 15 25 -2 19 -8 34 -13 34 -11 0 20 56 50 92 16 19 34 28 53
28 28 0 29 -1 26 -47z m468 20 c-10 -10 -19 5 -10 18 6 11 8 11 12 0 2 -7 1
-15 -2 -18z m-336 -4 c0 -5 -4 -9 -10 -9 -5 0 -10 7 -10 16 0 8 5 12 10 9 6
-3 10 -10 10 -16z m420 -6 c19 -5 35 -13 35 -19 0 -5 7 -24 14 -42 13 -32 12
-37 -15 -89 -34 -65 -83 -108 -113 -98 -41 13 -59 50 -55 114 1 33 7 69 13 79
7 13 7 22 -1 30 -9 9 -5 12 15 12 15 0 35 8 45 18 9 10 19 15 22 11 3 -4 21
-11 40 -16z m-830 -24 c0 -5 -4 -9 -10 -9 -5 0 -10 7 -10 16 0 8 5 12 10 9 6
-3 10 -10 10 -16z m99 -21 c0 -18 -3 -27 -6 -20 -2 6 -11 12 -19 12 -19 0 -18
17 4 29 9 6 18 11 20 11 1 0 2 -15 1 -32z m1438 0 c-3 -8 -6 -5 -6 6 -1 11 2
17 5 13 3 -3 4 -12 1 -19z m53 13 c0 -13 -26 -32 -33 -24 -8 7 11 33 24 33 5
0 9 -4 9 -9z m-1613 -33 c2 -18 0 -20 -7 -8 -12 18 -13 30 -2 30 4 0 9 -10 9
-22z m675 -20 c-7 -7 -10 -5 -7 8 5 29 6 30 12 16 3 -8 1 -18 -5 -24z m615 18
c0 -8 -9 -17 -19 -19 -15 -4 -17 -2 -9 7 6 7 8 16 4 19 -3 4 0 7 9 7 8 0 15
-6 15 -14z m-722 -18 c87 -33 160 -132 190 -260 15 -65 11 -81 -26 -121 -42
-45 -211 -1 -298 77 -40 36 -80 102 -87 144 -5 31 -1 53 17 91 37 83 105 106
204 69z m85 18 c0 -2 -7 -7 -16 -10 -8 -3 -12 -2 -9 4 6 10 25 14 25 6z m675
-6 c3 -5 1 -10 -4 -10 -6 0 -11 5 -11 10 0 6 2 10 4 10 3 0 8 -4 11 -10z
m-1021 -9 c3 -5 -3 -11 -15 -14 -16 -4 -18 -3 -8 9 13 16 16 17 23 5z m44 -58
c-12 -21 -21 -45 -20 -55 2 -9 -2 -19 -7 -22 -6 -4 -8 -13 -5 -21 8 -19 -47
-96 -63 -90 -7 2 -13 0 -13 -5 0 -6 -4 -10 -9 -10 -30 0 73 230 110 247 33 14
35 0 7 -44z m-343 17 c3 -5 -1 -10 -10 -10 -9 0 -13 5 -10 10 3 6 8 10 10 10
2 0 7 -4 10 -10z m1385 -54 c0 -3 -4 -8 -10 -11 -5 -3 -10 -1 -10 4 0 6 5 11
10 11 6 0 10 -2 10 -4z m-220 -16 c0 -5 -5 -10 -11 -10 -5 0 -7 5 -4 10 3 6 8
10 11 10 2 0 4 -4 4 -10z m110 -24 c0 -2 -7 -6 -15 -10 -8 -3 -15 -1 -15 4 0
6 7 10 15 10 8 0 15 -2 15 -4z m-360 -46 c21 -21 28 -46 8 -34 -7 4 -8 3 -4
-4 4 -7 -6 -25 -23 -41 -16 -16 -27 -32 -24 -35 4 -3 -4 -6 -16 -6 -12 0 -20
3 -18 8 3 4 -9 7 -26 7 -27 0 -32 4 -35 28 -4 32 16 54 67 79 46 22 47 22 71
-2z m-937 3 c-7 -2 -19 -2 -25 0 -7 3 -2 5 12 5 14 0 19 -2 13 -5z m37 -11 c0
-5 15 -6 32 -4 29 4 31 3 20 -11 -13 -16 -21 -16 -60 -3 -12 4 -20 12 -17 17
8 11 25 12 25 1z m1098 -20 c2 -7 -1 -12 -8 -12 -6 0 -9 4 -6 9 4 5 1 12 -4
14 -6 3 -5 4 2 3 6 -1 14 -8 16 -14z m-92 -10 c37 -25 40 -93 5 -137 -19 -25
-23 -26 -21 -10 5 42 1 50 -14 30 -12 -17 -16 -18 -32 -5 -16 14 -17 13 -10
-5 7 -19 6 -19 -10 -3 -29 28 -23 86 10 114 27 24 52 30 72 16z m267 -7 c-3
-9 -8 -14 -10 -11 -3 3 -2 9 2 15 9 16 15 13 8 -4z m-1183 -6 c0 -6 6 -16 13
-24 8 -7 13 -31 11 -54 -2 -54 -14 -66 -14 -15 -1 21 -7 50 -15 64 -17 30 -18
40 -5 40 6 0 10 -5 10 -11z m220 -9 c0 -5 -2 -10 -4 -10 -3 0 -8 5 -11 10 -3
6 -1 10 4 10 6 0 11 -4 11 -10z m905 -20 c8 0 15 -4 15 -10 0 -18 -29 -11 -40
9 -13 25 -13 42 1 19 5 -10 17 -18 24 -18z m-1190 10 c-28 -12 -37 -12 -30 0
3 6 16 10 28 9 21 0 21 -1 2 -9z m1100 0 c-3 -5 -11 -10 -16 -10 -6 0 -7 5 -4
10 3 6 11 10 16 10 6 0 7 -4 4 -10z m220 0 c3 -5 -1 -10 -10 -10 -9 0 -13 5
-10 10 3 6 8 10 10 10 2 0 7 -4 10 -10z m-55 -25 c0 -8 -4 -15 -10 -15 -5 0
-7 7 -4 15 4 8 8 15 10 15 2 0 4 -7 4 -15z m-1280 -16 c0 -6 -4 -7 -10 -4 -5
3 -10 11 -10 16 0 6 5 7 10 4 6 -3 10 -11 10 -16z m40 17 c0 -2 3 -12 7 -22 4
-12 3 -15 -5 -10 -7 4 -12 2 -12 -3 0 -6 -4 -11 -9 -11 -5 0 -8 11 -8 25 0 15
5 25 13 25 8 0 14 -2 14 -4z m1105 -36 c3 -5 -1 -10 -10 -10 -9 0 -13 5 -10
10 3 6 8 10 10 10 2 0 7 -4 10 -10z m276 -29 c9 -11 18 -19 21 -18 2 1 -5 -6
-15 -15 -19 -18 -19 -18 2 -18 12 0 19 5 16 10 -3 6 1 10 9 10 8 0 18 -5 22
-12 4 -7 3 -8 -4 -4 -7 4 -12 1 -12 -8 0 -9 5 -16 10 -16 19 0 10 -17 -14 -28
-17 -7 -27 -7 -34 0 -8 8 -14 3 -22 -18 -32 -87 -39 -95 -65 -76 -19 14 -35
63 -29 90 4 16 3 23 -2 19 -5 -5 -10 -13 -10 -18 -1 -5 -2 -13 -3 -19 0 -5 -7
-7 -14 -4 -14 5 -39 84 -27 84 4 0 10 10 13 21 4 15 11 20 22 15 9 -3 13 -2
10 3 -9 16 28 30 70 26 24 -2 46 -11 56 -24z m-1281 -5 c0 -8 -4 -18 -10 -21
-5 -3 -10 3 -10 14 0 12 5 21 10 21 6 0 10 -6 10 -14z m730 -1 c0 -10 -10 -15
-27 -15 -26 0 -26 1 -7 15 25 19 34 19 34 0z m-780 -19 c10 -13 10 -17 3 -12
-7 4 -13 3 -13 -2 0 -5 -3 -24 -7 -42 -5 -28 -3 -32 9 -27 9 3 21 0 28 -6 10
-9 11 -9 6 1 -12 20 18 14 34 -7 10 -15 18 -17 32 -10 13 7 18 6 18 -5 0 -10
-16 -15 -57 -18 -63 -4 -75 -2 -54 11 11 7 10 11 -6 19 -14 8 -23 8 -31 0 -9
-9 -12 -9 -12 0 0 7 -4 12 -10 12 -5 0 -10 -9 -10 -19 0 -11 -5 -23 -10 -26
-6 -4 -7 -11 -4 -17 4 -6 3 -8 -3 -5 -13 8 -55 -22 -48 -34 4 -5 1 -9 -4 -9
-6 0 -11 4 -11 9 0 13 -67 34 -81 25 -7 -4 -9 -3 -6 3 4 6 21 13 38 17 54 10
119 44 119 61 0 9 4 14 8 11 5 -3 16 8 26 25 12 20 13 29 5 27 -7 -2 -15 6
-17 17 -4 17 -2 18 12 6 13 -11 17 -11 22 3 4 9 7 16 8 14 1 -2 8 -12 16 -22z
m-206 -38 c-16 -18 -42 -45 -57 -61 -15 -15 -25 -32 -22 -37 8 -13 -5 -13 -43
1 -37 13 -33 29 6 29 18 0 44 16 81 50 60 57 79 66 35 18z m881 2 c-3 -5 -20
-8 -37 -8 l-31 1 23 19 c17 14 26 16 36 7 8 -6 12 -15 9 -19z m395 20 c0 -5
-2 -10 -4 -10 -3 0 -8 5 -11 10 -3 6 -1 10 4 10 6 0 11 -4 11 -10z m-965 -20
c14 -6 4 -8 -35 -8 -45 0 -50 2 -25 8 39 10 37 10 60 0z m162 -33 c10 4 14 2
9 -5 -3 -6 -2 -13 4 -17 14 -9 -6 -45 -25 -45 -23 0 -33 32 -22 70 9 29 11 31
14 13 3 -15 9 -20 20 -16z m233 5 c0 -26 -20 -42 -51 -42 -45 0 -47 24 -4 48
30 17 55 14 55 -6z m78 -17 c-3 -29 -7 -30 -33 -12 -21 16 -12 37 15 37 15 0
19 -6 18 -25z m-178 -7 c0 -6 -7 -7 -16 -4 -9 3 -18 6 -20 6 -3 0 -3 4 1 10 7
11 35 2 35 -12z m-211 -7 c9 -6 10 -11 3 -15 -6 -4 -9 -13 -5 -21 3 -10 -1
-15 -14 -15 -24 0 -43 -18 -37 -35 3 -7 -2 -15 -10 -18 -9 -4 -16 -2 -16 4 0
6 -5 7 -10 4 -6 -4 -8 -11 -5 -16 4 -5 -3 -9 -14 -9 -35 0 -26 36 12 46 17 6
33 16 33 24 1 8 2 19 3 25 0 5 6 4 12 -2 9 -9 15 -8 25 2 18 18 18 29 -1 21
-8 -3 -15 -1 -15 4 0 12 20 13 39 1z m-209 -31 c0 -5 -2 -10 -4 -10 -3 0 -8 5
-11 10 -3 6 -1 10 4 10 6 0 11 -4 11 -10z m435 -15 c-16 -7 -33 -11 -37 -8 -5
2 -8 -1 -8 -6 0 -6 6 -11 13 -12 6 0 3 -4 -8 -9 -27 -12 -37 -12 -30 -1 3 5 0
13 -6 17 -21 12 22 34 65 33 l41 -1 -30 -13z m258 6 c25 -10 44 -50 24 -52
-24 -2 -52 3 -57 11 -3 5 -6 -9 -6 -31 -2 -54 -20 -72 -26 -25 -2 21 0 36 7
37 5 0 -6 7 -25 14 -19 7 -27 14 -17 14 9 1 17 6 17 11 0 6 10 15 23 20 29 12
31 12 60 1z m-355 -26 c1 -15 -3 -25 -11 -25 -7 0 -21 -13 -30 -30 -10 -16
-14 -30 -8 -30 6 0 8 -6 5 -14 -3 -8 -12 -12 -20 -9 -7 3 -17 -2 -20 -11 -7
-19 -24 -11 -24 11 0 9 6 13 13 10 9 -3 27 18 51 59 21 35 39 64 40 64 1 0 3
-11 4 -25z m-121 -41 c9 -25 -7 -83 -29 -104 -12 -11 -24 -17 -27 -14 -3 3 -1
8 4 12 14 10 37 63 30 70 -3 4 -8 -4 -12 -16 -6 -25 -18 -29 -27 -7 -12 32 28
70 46 43 6 -10 8 -10 8 -1 0 7 -10 22 -22 34 l-23 21 23 -11 c13 -7 26 -19 29
-27z m1168 6 c-3 -5 -12 -10 -18 -10 -7 0 -6 4 3 10 19 12 23 12 15 0z m-1710
-30 c3 -5 -1 -10 -10 -10 -9 0 -13 5 -10 10 3 6 8 10 10 10 2 0 7 -4 10 -10z
m470 0 c3 -5 1 -10 -4 -10 -6 0 -11 5 -11 10 0 6 2 10 4 10 3 0 8 -4 11 -10z
m782 -37 c-3 -10 -5 -2 -5 17 0 19 2 27 5 18 2 -10 2 -26 0 -35z m-513 19 c3
-5 -8 -9 -25 -9 -19 0 -25 3 -17 9 17 10 35 10 42 0z m308 -8 c-12 -8 -28 -13
-35 -11 -7 3 -1 9 13 15 37 16 47 14 22 -4z m-655 -1 c-4 -3 1 -11 10 -18 13
-10 9 -14 -32 -28 l-48 -15 29 24 c23 20 24 23 6 14 -36 -17 -51 -5 -17 13 30
16 64 23 52 10z m813 -7 c0 -15 -48 -31 -59 -21 -7 8 28 35 46 35 7 0 13 -6
13 -14z m-523 -6 c13 0 13 -3 3 -15 -7 -8 -23 -15 -35 -15 -18 0 -22 4 -18 21
4 12 11 18 20 15 8 -3 22 -6 30 -6z m231 -22 c2 -12 -5 -19 -23 -24 -31 -8
-50 7 -41 31 8 22 60 16 64 -7z m-905 -18 c-6 -22 -7 -22 -13 -4 -4 10 -2 22
4 26 15 10 16 6 9 -22z m437 10 c-33 -26 -48 -26 -25 0 10 11 25 20 34 20 12
0 9 -6 -9 -20z m116 -19 c-4 -5 0 -11 6 -14 7 -2 10 -8 5 -12 -10 -12 -31 11
-23 24 4 6 9 11 12 11 3 0 3 -4 0 -9z m757 -8 c-4 -11 -3 -14 5 -9 18 11 14
-10 -4 -25 -13 -10 -17 -10 -25 2 -16 26 -9 49 17 49 8 0 11 -6 7 -17z m-706
1 c-3 -3 -12 -4 -19 -1 -8 3 -5 6 6 6 11 1 17 -2 13 -5z m63 -25 c0 -10 -12
-11 -34 -3 -25 10 -19 22 9 16 14 -2 25 -8 25 -13z m307 -5 c2 -6 -7 -10 -19
-9 -14 1 -27 -6 -34 -18 -7 -12 -14 -16 -18 -9 -3 6 4 20 16 32 23 21 49 23
55 4z m207 -39 c-20 -31 -39 -33 -22 -2 7 12 14 27 14 32 1 6 2 15 3 20 1 6 6
2 12 -7 7 -13 5 -24 -7 -43z m196 40 c7 -9 8 -15 2 -15 -5 0 -12 7 -16 15 -3
8 -4 15 -2 15 2 0 9 -7 16 -15z m-125 -5 c4 -6 -5 -10 -20 -10 -15 0 -24 4
-20 10 3 6 12 10 20 10 8 0 17 -4 20 -10z m-295 -24 c0 -3 -4 -8 -10 -11 -5
-3 -10 -1 -10 4 0 6 5 11 10 11 6 0 10 -2 10 -4z m257 -38 c-3 -7 -5 -2 -5 12
0 14 2 19 5 13 2 -7 2 -19 0 -25z m93 18 c0 -3 -4 -8 -10 -11 -5 -3 -10 -1
-10 4 0 6 5 11 10 11 6 0 10 -2 10 -4z m-362 -25 c3 -8 -1 -12 -9 -9 -7 2 -15
10 -17 17 -3 8 1 12 9 9 7 -2 15 -10 17 -17z m-363 -1 c8 -13 -5 -13 -25 0
-13 8 -13 10 2 10 9 0 20 -4 23 -10z"/>
<path d="M1653 1387 c0 -17 38 -16 55 0 7 7 9 13 3 13 -5 0 -13 -5 -16 -10 -4
-6 -13 -7 -24 -1 -12 7 -18 6 -18 -2z"/>
<path d="M1755 1390 c-3 -5 1 -10 9 -10 9 0 16 -5 16 -12 0 -6 2 -9 5 -6 7 7
-5 38 -15 38 -5 0 -12 -4 -15 -10z"/>
<path d="M1800 1396 c0 -2 7 -7 16 -10 8 -3 12 -2 9 4 -6 10 -25 14 -25 6z"/>
<path d="M1620 1380 c-9 -6 -10 -10 -3 -10 6 0 15 5 18 10 8 12 4 12 -15 0z"/>
<path d="M1733 1356 c-31 -15 -29 -28 2 -14 14 6 25 15 25 20 0 4 -1 7 -2 7
-2 -1 -13 -6 -25 -13z"/>
<path d="M1820 1358 c0 -6 3 -8 7 -5 3 4 12 2 18 -3 7 -6 21 -7 31 -3 17 6 16
7 -2 14 -29 12 -54 10 -54 -3z"/>
<path d="M1585 1334 c-21 -33 -19 -44 10 -42 14 1 25 6 25 11 0 5 -6 7 -14 4
-10 -4 -12 0 -9 14 3 10 8 19 12 20 3 0 15 2 26 4 28 6 57 -4 49 -17 -4 -7 -9
-6 -14 1 -4 8 -15 9 -30 3 l-24 -9 23 -6 c13 -3 20 -10 16 -16 -4 -8 0 -8 17
0 37 16 34 47 -5 53 -51 8 -66 4 -82 -20z"/>
<path d="M1785 1331 c-19 -8 -19 -8 1 -19 17 -9 20 -7 20 9 0 10 0 19 -1 18 0
0 -9 -4 -20 -8z"/>
<path d="M1838 1308 l-23 -18 28 10 c15 5 33 9 39 7 6 -1 12 3 14 8 7 17 -33
12 -58 -7z"/>
<path d="M1710 1311 c0 -5 7 -15 17 -22 15 -13 15 -12 4 9 -12 23 -21 28 -21
13z"/>
<path d="M1628 1278 c-5 -12 1 -17 22 -20 16 -2 27 -1 24 4 -3 4 -11 8 -19 8
-7 0 -15 5 -17 12 -3 8 -6 6 -10 -4z"/>
<path d="M1765 1280 c28 -12 37 -12 30 0 -3 6 -16 10 -28 9 -21 0 -21 -1 -2
-9z"/>
<path d="M1826 1267 c8 -5 22 -7 32 -6 9 1 21 1 25 0 13 -2 -17 -28 -41 -35
-17 -6 -21 -4 -16 8 3 9 2 16 -4 16 -6 0 -12 -4 -14 -10 -1 -5 -12 -11 -23
-14 -52 -11 -67 -19 -53 -28 10 -8 10 -11 0 -15 -6 -2 -10 -9 -7 -14 4 -5 17
3 31 19 17 17 24 21 20 10 -3 -10 -1 -18 4 -18 6 0 10 5 10 11 0 8 5 7 15 -1
9 -7 18 -10 22 -6 3 3 1 6 -5 6 -7 0 -12 5 -12 11 0 6 7 9 15 5 8 -3 15 -1 15
4 0 6 7 10 16 10 13 0 14 -3 5 -14 -10 -12 -8 -14 11 -9 20 4 21 3 7 -9 -9 -7
-14 -19 -11 -26 3 -9 -3 -11 -22 -6 -19 5 -26 3 -24 -7 2 -9 -9 -13 -34 -13
-30 -1 -34 1 -25 13 8 10 0 8 -20 -4 -18 -11 -33 -23 -33 -27 0 -4 -8 -5 -17
-2 -10 3 -7 -2 7 -10 14 -8 43 -15 65 -15 22 0 33 3 25 7 -17 8 -25 32 -11 32
20 0 41 -13 35 -21 -7 -12 0 -11 30 2 14 7 23 16 20 21 -3 4 1 11 10 14 8 3
12 12 9 20 -3 8 1 14 10 14 8 0 17 9 20 21 5 17 2 20 -14 16 -10 -3 -22 -1
-25 4 -3 5 -1 9 5 9 5 0 13 9 16 20 4 11 11 18 16 15 5 -4 9 -1 9 4 0 7 -22
10 -54 8 -34 -1 -49 -5 -40 -10z m24 -137 c0 -5 -4 -10 -10 -10 -5 0 -10 5
-10 10 0 6 5 10 10 10 6 0 10 -4 10 -10z m-100 -20 c0 -5 -4 -10 -10 -10 -5 0
-10 5 -10 10 0 6 5 10 10 10 6 0 10 -4 10 -10z"/>
<path d="M1693 1253 c-3 -8 -13 -13 -22 -12 -37 3 -52 -1 -45 -13 6 -10 5 -10
-7 -1 -11 9 -18 8 -33 -3 -11 -8 -16 -14 -10 -15 24 -3 60 4 73 14 12 10 12 9
3 -10 -11 -19 -9 -24 8 -33 20 -11 40 -6 40 9 0 5 -12 6 -26 3 -24 -4 -25 -3
-15 15 12 23 41 38 41 22 0 -6 6 -9 13 -6 6 2 11 10 10 16 -2 6 4 11 13 11 8
0 12 -5 9 -11 -4 -6 2 -5 13 2 26 16 24 19 -23 23 -24 2 -39 -2 -42 -11z"/>
<path d="M1522 1224 c-7 -8 -17 -12 -23 -9 -5 4 -9 2 -9 -4 0 -9 60 -32 68
-25 2 1 -2 13 -10 27 -11 21 -15 23 -26 11z"/>
<path d="M1420 1195 c0 -12 -9 -34 -20 -48 -27 -34 -27 -51 0 -37 11 6 25 8
30 5 6 -3 10 5 10 19 0 14 5 28 10 31 17 11 11 42 -10 48 -16 4 -20 0 -20 -18z"/>
<path d="M1600 1177 c0 -8 9 -22 19 -31 19 -17 19 -17 14 3 -3 11 -9 18 -14
15 -5 -3 -9 -1 -9 5 0 5 6 12 13 14 7 3 5 6 -5 6 -10 1 -18 -5 -18 -12z"/>
<path d="M1651 1158 c-1 -22 18 -33 32 -19 9 9 8 11 -5 6 -11 -4 -18 0 -21 12
-4 15 -5 16 -6 1z"/>
<path d="M1612 1044 c-7 -14 -8 -23 -3 -20 5 4 11 0 14 -6 2 -7 8 -9 13 -5 5
4 2 12 -5 16 -7 5 -11 13 -7 19 8 13 46 3 46 -12 0 -7 12 -23 27 -35 18 -17
24 -19 20 -7 -4 9 -2 16 3 16 6 0 10 -7 10 -15 0 -8 7 -15 15 -15 24 0 18 7
-40 50 -63 47 -78 49 -93 14z"/>
<path d="M1651 994 c0 -11 3 -14 6 -6 3 7 2 16 -1 19 -3 4 -6 -2 -5 -13z"/>
<path d="M1441 974 c-14 -32 -11 -37 11 -15 10 10 14 22 9 29 -5 9 -11 5 -20
-14z"/>
<path d="M1480 989 c0 -5 5 -7 10 -4 6 3 10 8 10 11 0 2 -4 4 -10 4 -5 0 -10
-5 -10 -11z"/>
<path d="M1575 930 c3 -5 14 -10 23 -10 15 0 15 2 2 10 -20 13 -33 13 -25 0z"/>
<path d="M1745 930 c-3 -5 0 -7 9 -4 8 3 16 -2 19 -13 4 -14 5 -14 6 5 1 22
-22 31 -34 12z"/>
<path d="M1665 920 c-4 -6 3 -10 14 -10 25 0 27 6 6 13 -8 4 -17 2 -20 -3z"/>
<path d="M1650 886 c0 -2 7 -6 15 -10 8 -3 15 -1 15 4 0 6 -7 10 -15 10 -8 0
-15 -2 -15 -4z"/>
<path d="M1691 866 c-9 -10 -9 -16 -1 -21 8 -5 8 -11 0 -20 -7 -9 -6 -16 5
-25 10 -9 15 -9 15 -1 0 6 -6 11 -12 11 -8 0 -5 7 6 15 11 9 14 15 7 15 -8 0
-10 7 -6 20 7 23 2 26 -14 6z"/>
<path d="M1740 836 c0 -2 7 -7 16 -10 8 -3 12 -2 9 4 -6 10 -25 14 -25 6z"/>
<path d="M1640 778 c0 -9 7 -19 16 -22 15 -6 15 -4 3 11 -7 10 -15 20 -16 22
-2 2 -3 -3 -3 -11z"/>
<path d="M860 1110 c-9 -16 -8 -20 5 -20 8 0 15 9 15 20 0 11 -2 20 -5 20 -2
0 -9 -9 -15 -20z"/>
<path d="M875 1000 c3 -5 10 -10 16 -10 5 0 9 5 9 10 0 6 -7 10 -16 10 -8 0
-12 -4 -9 -10z"/>
<path d="M411 733 c-1 -12 4 -25 9 -28 12 -7 12 2 0 30 -8 19 -9 19 -9 -2z"/>
<path d="M440 730 c0 -5 5 -10 10 -10 6 0 10 5 10 10 0 6 -4 10 -10 10 -5 0
-10 -4 -10 -10z"/>
<path d="M1640 480 c-9 -6 -10 -10 -3 -10 6 0 15 5 18 10 8 12 4 12 -15 0z"/>
<path d="M400 1460 c11 -21 35 -26 44 -11 3 5 -8 14 -24 20 -28 9 -29 9 -20
-9z"/>
<path d="M495 1470 c3 -5 8 -10 11 -10 2 0 4 5 4 10 0 6 -5 10 -11 10 -5 0 -7
-4 -4 -10z"/>
<path d="M111 1454 c0 -11 3 -14 6 -6 3 7 2 16 -1 19 -3 4 -6 -2 -5 -13z"/>
<path d="M81 1403 c-1 -23 3 -33 14 -33 10 0 15 9 14 28 l-1 27 -8 -25 -7 -25
-5 30 -5 30 -2 -32z"/>
<path d="M122 1405 c0 -16 2 -22 5 -12 2 9 2 23 0 30 -3 6 -5 -1 -5 -18z"/>
<path d="M530 1320 c-9 -6 -10 -10 -3 -10 6 0 15 5 18 10 8 12 4 12 -15 0z"/>
<path d="M1932 1075 c-11 -13 -10 -15 6 -15 11 0 27 -10 35 -22 l16 -23 0 26
c1 43 -31 62 -57 34z"/>
<path d="M1957 996 c-4 -10 0 -12 14 -9 22 6 26 23 5 23 -8 0 -16 -6 -19 -14z"/>
<path d="M317 981 c-3 -14 0 -17 14 -14 15 4 17 8 8 19 -15 18 -16 18 -22 -5z"/>
<path d="M1835 754 l-30 -26 32 16 c17 9 35 20 38 26 11 18 -9 10 -40 -16z"/>
<path d="M1770 709 c0 -5 5 -7 10 -4 6 3 10 8 10 11 0 2 -4 4 -10 4 -5 0 -10
-5 -10 -11z"/>
<path d="M1860 710 c19 -13 30 -13 30 0 0 6 -10 10 -22 10 -19 0 -20 -2 -8
-10z"/>
<path d="M1965 709 c-4 -5 -19 -7 -34 -4 -37 8 -62 -18 -33 -34 15 -8 23 -7
33 5 7 9 22 14 34 12 15 -3 21 1 22 14 2 20 -12 24 -22 7z m-45 -29 c0 -5 -2
-10 -4 -10 -3 0 -8 5 -11 10 -3 6 -1 10 4 10 6 0 11 -4 11 -10z"/>
<path d="M1742 693 c-22 -9 -44 -62 -33 -81 9 -14 10 -12 11 12 0 17 10 40 22
53 22 24 22 25 0 16z"/>
<path d="M1790 680 c0 -6 7 -10 15 -10 8 0 15 2 15 4 0 2 -7 6 -15 10 -8 3
-15 1 -15 -4z"/>
<path d="M1861 641 c-7 -5 -23 -7 -35 -4 -19 3 -19 3 2 -7 17 -7 30 -6 50 5
15 8 20 14 12 14 -8 1 -21 -3 -29 -8z"/>
<path d="M1758 574 c-34 -18 -34 -17 -5 -47 27 -29 60 -47 84 -46 12 0 7 6
-15 17 -24 11 -32 21 -29 34 5 19 -8 25 -18 8 -4 -6 -11 -7 -17 -4 -7 4 -2 14
13 25 31 23 22 31 -13 13z"/>
<path d="M1958 579 c-23 -13 -23 -29 -1 -29 9 0 13 3 10 7 -4 3 1 12 11 19 20
16 5 18 -20 3z"/>
<path d="M1890 535 c-16 -9 -19 -14 -9 -15 8 0 24 7 35 15 24 18 7 19 -26 0z"/>
<path d="M1890 510 c-8 -5 -12 -11 -10 -14 3 -2 14 2 24 10 22 15 10 19 -14 4z"/>
<path d="M1414 378 c-5 -8 -2 -9 9 -5 9 3 20 0 24 -7 5 -7 17 -16 28 -20 14
-6 16 -10 7 -13 -10 -4 -8 -9 5 -19 24 -18 38 -18 23 1 -9 10 -9 15 -1 15 23
0 10 17 -30 38 -47 25 -55 26 -65 10z"/>
<path d="M1175 370 c-3 -5 -2 -10 4 -10 5 0 13 5 16 10 3 6 2 10 -4 10 -5 0
-13 -4 -16 -10z"/>
<path d="M1533 318 c3 -10 2 -18 -3 -18 -6 0 -10 -7 -10 -15 0 -8 -12 -21 -27
-29 -30 -15 -32 -24 -11 -37 11 -8 11 -11 -1 -18 -9 -6 -11 -16 -6 -27 7 -17
9 -16 19 9 7 15 15 24 19 21 4 -4 7 0 7 9 0 9 -7 20 -16 25 -14 8 -14 10 2 17
11 4 25 9 33 9 20 1 23 42 4 57 -15 12 -16 12 -10 -3z"/>
<path d="M1934 258 c2 -54 56 -52 56 1 l0 26 -20 -30 -20 -30 0 28 c0 15 -4
27 -8 27 -5 0 -8 -10 -8 -22z"/>
<path d="M1814 255 c11 -8 22 -12 25 -9 6 6 -19 24 -34 24 -5 -1 -1 -7 9 -15z"/>
<path d="M1530 190 c0 -5 5 -10 10 -10 6 0 10 5 10 10 0 6 -4 10 -10 10 -5 0
-10 -4 -10 -10z"/>
<path d="M1680 171 c0 -5 7 -11 15 -15 8 -3 15 -1 15 3 0 5 -7 11 -15 15 -8 3
-15 1 -15 -3z"/>
<path d="M1762 104 c21 -21 40 -36 43 -33 3 3 -14 21 -38 39 l-42 33 37 -39z"/>
<path d="M1812 43 c-7 -2 -17 -13 -22 -24 -9 -16 -7 -19 8 -19 13 0 21 9 24
25 3 14 5 25 4 24 0 0 -7 -3 -14 -6z"/>
</g>
</svg>
